<svg xmlns="http://www.w3.org/2000/svg" viewBox="0 0 512 512">
  <defs>
    <linearGradient id="grad" x1="0%" y1="0%" x2="100%" y2="100%">
      <stop offset="0%" stop-color="#03a66d" />
      <stop offset="100%" stop-color="#2563eb" />
    </linearGradient>
  </defs>
  <rect width="512" height="512" rx="120" fill="#000000" />
  <path fill="url(#grad)" d="M416 192H314.6l-37.3-48H128c-26.5 0-48 21.5-48 48v256c0 26.5 21.5 48 48 48h288c26.5 0 48-21.5 48-48V240c0-26.5-21.5-48-48-48zm-160 48a48 48 0 1 1 0 96 48 48 0 0 1 0-96z"/>
  <path fill="#ffffff" d="M256 260c-11 0-20 9-20 20v24c0 11 9 20 20 20s20-9 20-20v-24c0-11-9-20-20-20z" opacity="0.9"/>
</svg>
